# xmcd CD database file generated by freedbAccess_ocx
#
# Track frame offsets:
#       150
#       14403
#       32533
#       45186
#       57290
#       74803
#       88372
#       100124
#       121763
#       134768
#       146501
#       158710
#       174466
#       188030
#
# Disc length: 2670 seconds
#
# Revision: 0
# Processed by: cddbd v1.4PL0 Copyright (c) Steve Scherf et al.
# Submitted via: CDnGo 1.95
#
DISCID=bf0a6c0e
DTITLE=Banda La Mentira - Mis Ultimos corridos
DYEAR=2002
DGENRE=Latin
TTITLE0=El federal y el juarense
TTITLE1=Al amigo que se fue (Ramon Femat)
TTITLE2=Juan Ramos
TTITLE3=Placa de oro
TTITLE4=El Comanche y la Chona
TTITLE5=El Trailer negro
TTITLE6=Valentin de la sierra
TTITLE7=Hilario Carrillo
TTITLE8=La Anselma
TTITLE9=Asesino a sueldo
TTITLE10=La tragedia de los siete
TTITLE11=Corrido de Juan Pablo Nevarez
TTITLE12=Los tequileros
TTITLE13=Eleazar del Fierro
EXTD=
EXTT0=
EXTT1=
EXTT2=
EXTT3=
EXTT4=
EXTT5=
EXTT6=
EXTT7=
EXTT8=
EXTT9=
EXTT10=
EXTT11=
EXTT12=
EXTT13=
PLAYORDER=
